# xmcd
#
# Track frame offsets: 
#        150
#        17215
#        25777
#        38835
#
# Disc length: 677 seconds
#
# Revision: 0
# Processed by: cddbd v1.5.2PL0 Copyright (c) Steve Scherf et al.
# Submitted via: ExactAudioCopy v0.95b4
#
DISCID=2602a304
DTITLE=Resolve - Gun For Christmas (Promo CD Single)
DYEAR=1996
DGENRE=Christmas/Holiday
TTITLE0=Gun For Christmas
TTITLE1=Boxed In
TTITLE2=A Time Like Christmas
TTITLE3=It Feels Like...
EXTD=
EXTT0=
EXTT1=
EXTT2=
EXTT3=
PLAYORDER=
